<svg xmlns="http://www.w3.org/2000/svg" viewBox="0 0 1200 350" role="img" aria-labelledby="title desc">
  <title id="title">George-RD Tokscale activity trace</title>
  <desc id="desc">81.7B all-time tokens, $44.6K estimated all-time cost, 28 active days in the current 30-day window.</desc>
  <!-- Generated from https://tokscale.ai/api/users/George-RD at 2026-08-10T02:38:12.012Z -->
  <style>
    :root {
      --paper: #f1ede4;
      --paper-deep: #e4ded1;
      --ink: #10231f;
      --ink-soft: #304943;
      --rust: #c9482b;
      --rust-dark: #9f341f;
      --tide: #173e50;
      --field: #445d50;
      --signal: #e9be48;
      --line: #b9b2a5;
      --display: "Arial Narrow", "Avenir Next Condensed", "Helvetica Neue", sans-serif;
      --body: "Avenir Next", "Segoe UI", "Helvetica Neue", sans-serif;
      --mono: ui-monospace, "SFMono-Regular", Consolas, monospace;
      --ease-out: cubic-bezier(0.16, 1, 0.3, 1);
    }
    .paper { fill: #f1ede4; }
    .edge, .rule, .grid { fill: none; stroke: #b9b2a5; }
    .edge { stroke: #10231f; stroke-width: 2; }
    .rule { stroke-width: 1; }
    .grid { stroke-width: 1; opacity: 0.55; }
    .kicker { fill: #c9482b; font-family: ui-monospace, "SFMono-Regular", Consolas, monospace; font-size: 14px; font-weight: 700; letter-spacing: 2px; }
    .meta, .metric-label, .model-label { fill: #304943; font-family: ui-monospace, "SFMono-Regular", Consolas, monospace; font-size: 11px; font-weight: 700; letter-spacing: 1px; }
    .metric-value { fill: #10231f; font-family: "Arial Narrow", "Avenir Next Condensed", "Helvetica Neue", sans-serif; font-size: 36px; font-weight: 800; letter-spacing: -0.5px; }
    .metric-note { fill: #304943; font-family: "Avenir Next", "Segoe UI", "Helvetica Neue", sans-serif; font-size: 12px; font-weight: 600; }
    .chart-title { fill: #10231f; font-family: "Arial Narrow", "Avenir Next Condensed", "Helvetica Neue", sans-serif; font-size: 21px; font-weight: 800; letter-spacing: 0.3px; }
    .chart-note, .model-name { fill: #304943; font-family: "Avenir Next", "Segoe UI", "Helvetica Neue", sans-serif; font-size: 13px; font-weight: 600; }
    .model-value { fill: #10231f; font-family: ui-monospace, "SFMono-Regular", Consolas, monospace; font-size: 12px; font-weight: 700; letter-spacing: 0.7px; }
    .trace { fill: none; stroke: #c9482b; stroke-width: 3; stroke-linecap: round; stroke-linejoin: round; stroke-dasharray: 1; stroke-dashoffset: 1; animation: draw 1600ms var(--ease-out) forwards; }
    .bar { transform-box: fill-box; transform-origin: bottom; animation: rise 820ms var(--ease-out) both; animation-delay: var(--delay); }
    .i0 { fill: #e4ded1; stroke: #b9b2a5; stroke-width: 0.6; }
    .i1 { fill: #c9b99a; }
    .i2 { fill: #445d50; }
    .i3 { fill: #173e50; }
    .i4 { fill: #c9482b; }
    .mix-input { fill: #c9482b; }
    .mix-output { fill: #e9be48; }
    .mix-cache { fill: #173e50; }
    .mix-reasoning { fill: #445d50; }
    .stamp { fill: #304943; font-family: ui-monospace, "SFMono-Regular", Consolas, monospace; font-size: 10px; font-weight: 600; letter-spacing: 0.75px; }
    @keyframes draw { to { stroke-dashoffset: 0; } }
    @keyframes rise { from { transform: scaleY(0.08); opacity: 0.35; } to { transform: scaleY(1); opacity: 1; } }
    @media (prefers-reduced-motion: reduce) {
      .trace, .bar { animation: none; }
      .trace { stroke-dashoffset: 0; }
    }
  </style>

  <rect class="paper" width="1200" height="350" />
  <rect class="edge" x="1" y="1" width="1198" height="348" />
  <line class="rule" x1="58" y1="58" x2="1142" y2="58" />
  <text class="kicker" x="58" y="39">TOKSCALE / AI ACTIVITY TRACE</text>
  <text class="meta" x="1142" y="39" text-anchor="end">PUBLIC PROFILE / SCHEDULED REFRESH</text>

  <text class="metric-label" x="58" y="96">ALL TIME TOKENS</text>
  <text class="metric-value" x="58" y="130">81.7B</text>
  <text class="metric-note" x="58" y="153">$44.6K ESTIMATED COST</text>
  <text class="metric-label" x="314" y="96">30 DAY TOKENS</text>
  <text class="metric-value" x="314" y="130">53B</text>
  <text class="metric-note" x="314" y="153">28 ACTIVE DAYS</text>
  <text class="metric-label" x="58" y="180">GLOBAL RANK</text>
  <text class="metric-value" x="58" y="214">#112</text>
  <text class="metric-note" x="58" y="237">TOKENS SORT / George-RD</text>
  <text class="metric-label" x="314" y="180">SUBMISSIONS</text>
  <text class="metric-value" x="314" y="214">33</text>
  <text class="metric-note" x="314" y="237">39.9K SESSIONS</text>

  <text class="model-label" x="58" y="249">TOKEN MIX</text>
  <rect x="58" y="260" width="478" height="12" fill="#e4ded1" />
  <rect class="mix-input" x="58.0" y="260" width="24.7" height="12"><title>input · 5.2%</title></rect>
    <rect class="mix-output" x="82.7" y="260" width="3.0" height="12"><title>output · 0.4%</title></rect>
    <rect class="mix-cache" x="85.7" y="260" width="451.4" height="12"><title>cache · 94.4%</title></rect>
    <rect class="mix-reasoning" x="537.1" y="260" width="3.0" height="12"><title>reasoning · 0%</title></rect>

  <text class="chart-title" x="642" y="96">30 DAY ACTIVITY FIELD</text>
  <text class="chart-note" x="642" y="119">DATA THROUGH 2026-08-08 / HIGHEST DAY 7.41B</text>
  <line class="grid" x1="642" y1="132" x2="1098" y2="132" />
  <line class="grid" x1="642" y1="168" x2="1098" y2="168" />
  <line class="grid" x1="642" y1="204" x2="1098" y2="204" />
  <g aria-label="Daily activity bars">
    <rect class="bar i1" x="642.0" y="197" width="7.5" height="6" rx="2" style="--delay:0ms"><title>2026-07-12 · 666M tokens</title></rect>
    <rect class="bar i1" x="655.0" y="195" width="7.5" height="8" rx="2" style="--delay:22ms"><title>2026-07-13 · 835M tokens</title></rect>
    <rect class="bar i1" x="668.0" y="196" width="7.5" height="7" rx="2" style="--delay:44ms"><title>2026-07-14 · 744M tokens</title></rect>
    <rect class="bar i1" x="681.0" y="196" width="7.5" height="7" rx="2" style="--delay:66ms"><title>2026-07-15 · 721M tokens</title></rect>
    <rect class="bar i3" x="694.0" y="171" width="7.5" height="32" rx="2" style="--delay:88ms"><title>2026-07-16 · 3.34B tokens</title></rect>
    <rect class="bar i4" x="707.0" y="131" width="7.5" height="72" rx="2" style="--delay:110ms"><title>2026-07-17 · 7.41B tokens</title></rect>
    <rect class="bar i4" x="720.0" y="137" width="7.5" height="66" rx="2" style="--delay:132ms"><title>2026-07-18 · 6.77B tokens</title></rect>
    <rect class="bar i1" x="733.0" y="198" width="7.5" height="5" rx="2" style="--delay:154ms"><title>2026-07-19 · 473M tokens</title></rect>
    <rect class="bar i1" x="746.0" y="199" width="7.5" height="4" rx="2" style="--delay:176ms"><title>2026-07-20 · 10M tokens</title></rect>
    <rect class="bar i1" x="759.0" y="195" width="7.5" height="8" rx="2" style="--delay:198ms"><title>2026-07-21 · 866M tokens</title></rect>
    <rect class="bar i1" x="772.0" y="198" width="7.5" height="5" rx="2" style="--delay:220ms"><title>2026-07-22 · 488M tokens</title></rect>
    <rect class="bar i2" x="785.0" y="179" width="7.5" height="24" rx="2" style="--delay:242ms"><title>2026-07-23 · 2.43B tokens</title></rect>
    <rect class="bar i2" x="798.0" y="189" width="7.5" height="14" rx="2" style="--delay:264ms"><title>2026-07-24 · 1.48B tokens</title></rect>
    <rect class="bar i1" x="811.0" y="195" width="7.5" height="8" rx="2" style="--delay:286ms"><title>2026-07-25 · 847M tokens</title></rect>
    <rect class="bar i2" x="824.0" y="183" width="7.5" height="20" rx="2" style="--delay:308ms"><title>2026-07-26 · 2.08B tokens</title></rect>
    <rect class="bar i2" x="837.0" y="171" width="7.5" height="32" rx="2" style="--delay:330ms"><title>2026-07-27 · 3.29B tokens</title></rect>
    <rect class="bar i1" x="850.0" y="190" width="7.5" height="13" rx="2" style="--delay:352ms"><title>2026-07-28 · 1.3B tokens</title></rect>
    <rect class="bar i1" x="863.0" y="197" width="7.5" height="6" rx="2" style="--delay:374ms"><title>2026-07-29 · 638M tokens</title></rect>
    <rect class="bar i2" x="876.0" y="189" width="7.5" height="14" rx="2" style="--delay:396ms"><title>2026-07-30 · 1.44B tokens</title></rect>
    <rect class="bar i1" x="889.0" y="194" width="7.5" height="9" rx="2" style="--delay:418ms"><title>2026-07-31 · 901M tokens</title></rect>
    <rect class="bar i1" x="902.0" y="199" width="7.5" height="4" rx="2" style="--delay:440ms"><title>2026-08-01 · 40.9M tokens</title></rect>
    <rect class="bar i1" x="915.0" y="197" width="7.5" height="6" rx="2" style="--delay:462ms"><title>2026-08-02 · 594M tokens</title></rect>
    <rect class="bar i2" x="928.0" y="156" width="7.5" height="47" rx="2" style="--delay:484ms"><title>2026-08-03 · 4.8B tokens</title></rect>
    <rect class="bar i1" x="941.0" y="185" width="7.5" height="18" rx="2" style="--delay:506ms"><title>2026-08-04 · 1.9B tokens</title></rect>
    <rect class="bar i1" x="954.0" y="196" width="7.5" height="7" rx="2" style="--delay:528ms"><title>2026-08-05 · 680M tokens</title></rect>
    <rect class="bar i2" x="967.0" y="179" width="7.5" height="24" rx="2" style="--delay:550ms"><title>2026-08-06 · 2.5B tokens</title></rect>
    <rect class="bar i2" x="980.0" y="174" width="7.5" height="29" rx="2" style="--delay:572ms"><title>2026-08-07 · 2.96B tokens</title></rect>
    <rect class="bar i1" x="993.0" y="176" width="7.5" height="27" rx="2" style="--delay:594ms"><title>2026-08-08 · 2.78B tokens</title></rect>
  </g>
  <path class="trace" pathLength="1" d="M646.0 192.3 L659.0 190.7 L672.0 191.6 L685.0 191.8 L698.0 165.7 L711.0 125.0 L724.0 131.4 L737.0 194.0 L750.0 194.0 L763.0 190.3 L776.0 194.0 L789.0 174.7 L802.0 184.2 L815.0 190.5 L828.0 178.2 L841.0 166.1 L854.0 186.0 L867.0 192.6 L880.0 184.7 L893.0 190.0 L906.0 194.0 L919.0 193.1 L932.0 151.1 L945.0 180.0 L958.0 192.2 L971.0 174.0 L984.0 169.4 L997.0 171.2" />

  <text class="model-label" x="642" y="225">TOP MODELS IN WINDOW</text>
  <text class="model-name" x="642" y="245">gpt-5.6-sol</text><text class="model-value" x="1098" y="245" text-anchor="end">15.9B</text>
  <text class="model-name" x="642" y="269">claude-opus-5</text><text class="model-value" x="1098" y="269" text-anchor="end">9.25B</text>
  <text class="model-name" x="642" y="293">claude-fable-5</text><text class="model-value" x="1098" y="293" text-anchor="end">4.3B</text>
  <line class="rule" x1="58" y1="311" x2="1142" y2="311" />
  <text class="stamp" x="58" y="333">INPUT 5.2% / OUTPUT 0.4% / CACHE 94.4% / REASONING 0%</text>
  <text class="stamp" x="642" y="333">SOURCE TOKSCALE.AI/U/George-RD / GENERATED 10 AUG 2026</text>
</svg>
